<svg width="194" height="40" viewBox="0 0 194 40" fill="none" xmlns="http://www.w3.org/2000/svg">
<path d="M192.93 10.2179V0H155.351C147.506 0 143.971 4.84262 143.39 9.53995V9.68523V0H132.349V10.2179H143.341H192.93ZM143.341 13.8983L132.3 13.2688V25.0363C132.3 28.7167 130.46 29.8305 124.068 29.8305H115.254C109.976 29.8305 107.748 28.3293 107.748 25.0363V12.155L96.5618 11.3317V25.9564H96.3196C95.6901 21.6949 94.092 16.7555 83.4383 16.0291L48.4262 13.7046C48.4262 19.0799 52.2518 22.276 58.2567 22.9056L82.6635 25.3753C84.6005 25.5206 86.0049 26.1017 86.0049 27.6998C86.0049 29.4431 84.5521 29.6368 82.3245 29.6368H47.9903V13.7046L36.8039 12.9782V40H82.3729C92.5424 40 95.787 34.7215 96.2712 30.3148H96.5134C97.7724 37.2881 103.874 40 114.189 40H125.569C137.627 40 143.341 36.3196 143.341 27.6998V13.8983ZM178.838 15.9806L143.826 13.8983C143.826 19.2736 147.361 22.8571 153.366 23.3414L178.305 25.2785C180.242 25.4237 181.404 25.908 181.404 27.5061C181.404 29.0073 180.048 29.5884 177.24 29.5884H143.245V40H177.966C188.91 40 193.705 36.1743 193.705 27.4576C193.705 19.6126 189.395 16.6586 178.838 15.9806ZM96.5618 0H107.748V10.2179H96.5618V0ZM30.6538 12.4939L18.4988 11.2833L0 40H13.6078L30.6538 12.4939ZM94.5279 0H60.3874C52.4455 0 48.9589 4.93947 48.1356 9.68523V0H29.201C26.5375 0 25.2785 0.823244 24.0194 2.66344L18.7894 10.2179H94.5279V0Z" fill="white"/>
</svg>
