<svg width="40" height="40" viewBox="0 0 40 40" fill="none" xmlns="http://www.w3.org/2000/svg">
<g clip-path="url(#clip0_21_244)">
<path d="M40 20C40 31.0449 31.0449 40 20 40C8.95508 40 0 31.0449 0 20C0 8.95508 8.95508 0 20 0C31.0449 0 40 8.95508 40 20Z" fill="#818181"/>
<path d="M9.94922 16.4004C9.94922 16.4004 8.40039 16.4004 7.84961 17.3008V13.6992C7.84961 13.6992 5.69922 13.75 5.55078 13.6992V23.0508H7.84961V22.5C7.84961 22.5 8.55078 23.3008 9.75 23.3008C9.75 23.3008 12.8496 23.1992 12.9004 20.1992C12.9004 20.25 13.3496 16.6992 9.94922 16.4004ZM9.30078 21.25C8.59961 21.25 8 20.6504 8 19.9492C8 19.25 8.59961 18.6504 9.30078 18.6504C10 18.6504 10.5996 19.25 10.5996 19.9492C10.5996 20.6504 10 21.25 9.30078 21.25Z" fill="white"/>
<path d="M13.5996 13.4004V15.6504C13.5996 15.6504 14.6504 15.9004 14.6504 16.75V23.0996H16.8496V16.6992C16.9004 16.6992 17.1992 13.5508 13.5996 13.4004Z" fill="white"/>
<path d="M32.0996 16.5508V17.25C31.3496 16.25 30.1504 16.4004 30.1504 16.4004C27.0996 16.5996 27.0508 19.4004 27.0508 19.4004V20.4492C27.0508 23.1504 29.8008 23.3496 29.8008 23.3496C31.75 23.3496 32 22.5 32 22.5C32 24.6504 30.5996 24.5 30.5996 24.5H30V26.5996H31C34.3008 26.5996 34.3008 23.3496 34.3008 23.3496V16.5508H32.0996ZM30.8496 21.3008C30.0996 21.3008 29.4492 20.6992 29.4492 19.9004C29.4492 19.0996 30.0508 18.5 30.8496 18.5C31.6504 18.5 32.25 19.0996 32.25 19.9004C32.1992 20.6504 31.5996 21.3008 30.8496 21.3008Z" fill="white"/>
<path d="M22.1992 16.4492C20.1504 16.4492 18.4492 18 18.4492 19.9004C18.4492 21.8008 20.0996 23.3496 22.1992 23.3496C24.25 23.3496 25.9492 21.8008 25.9492 19.9004C25.9492 18 24.25 16.4492 22.1992 16.4492ZM22.1992 21.3008C21.4004 21.3008 20.8008 20.6504 20.8008 19.9004C20.8008 19.0996 21.4492 18.5 22.1992 18.5C23 18.5 23.5996 19.1504 23.5996 19.9004C23.5996 20.6992 22.9492 21.3008 22.1992 21.3008Z" fill="white"/>
</g>
<defs>
<clipPath id="clip0_21_244">
<rect width="40" height="40" fill="white"/>
</clipPath>
</defs>
</svg>
