<svg width="110" height="41" viewBox="0 0 110 41" fill="none" xmlns="http://www.w3.org/2000/svg">
<path d="M0.75 7.99999C0.75 3.99593 3.99593 0.75 8 0.75H102C106.004 0.75 109.25 3.99594 109.25 8V32.4082C109.25 36.4122 106.004 39.6582 102 39.6582H8C3.99593 39.6582 0.75 36.4122 0.75 32.4082V7.99999Z" fill="white" stroke="#646464" stroke-width="1.5"/>
<path d="M59.6562 25.7955V14.1592H66.679V15.4092H61.0653V19.341H66.3153V20.591H61.0653V24.5455H66.7699V25.7955H59.6562Z" fill="#646464"/>
<path d="M49.4219 25.7955V14.1592H53.3537C54.2628 14.1592 55.009 14.3145 55.5923 14.6251C56.1757 14.9319 56.6075 15.3543 56.8878 15.8921C57.1681 16.43 57.3082 17.0418 57.3082 17.7274C57.3082 18.413 57.1681 19.0209 56.8878 19.5512C56.6075 20.0815 56.1776 20.4982 55.598 20.8012C55.0185 21.1005 54.2779 21.2501 53.3764 21.2501H50.1946V19.9774H53.331C53.9522 19.9774 54.4522 19.8865 54.831 19.7046C55.2135 19.5228 55.4901 19.2652 55.6605 18.9319C55.8348 18.5948 55.9219 18.1933 55.9219 17.7274C55.9219 17.2615 55.8348 16.8543 55.6605 16.5058C55.4863 16.1573 55.2079 15.8883 54.8253 15.699C54.4427 15.5058 53.937 15.4092 53.3082 15.4092H50.831V25.7955H49.4219ZM54.8991 20.5683L57.7628 25.7955H56.1264L53.3082 20.5683H54.8991Z" fill="#646464"/>
<path d="M47.0525 19.9773C47.0525 21.2045 46.8309 22.2652 46.3877 23.1591C45.9446 24.053 45.3366 24.7424 44.5639 25.2273C43.7911 25.7121 42.9086 25.9545 41.9161 25.9545C40.9237 25.9545 40.0411 25.7121 39.2684 25.2273C38.4957 24.7424 37.8877 24.053 37.4446 23.1591C37.0014 22.2652 36.7798 21.2045 36.7798 19.9773C36.7798 18.75 37.0014 17.6894 37.4446 16.7955C37.8877 15.9015 38.4957 15.2121 39.2684 14.7273C40.0411 14.2424 40.9237 14 41.9161 14C42.9086 14 43.7911 14.2424 44.5639 14.7273C45.3366 15.2121 45.9446 15.9015 46.3877 16.7955C46.8309 17.6894 47.0525 18.75 47.0525 19.9773ZM45.6889 19.9773C45.6889 18.9697 45.5203 18.1193 45.1832 17.4261C44.8499 16.733 44.3972 16.2083 43.8252 15.8523C43.2571 15.4962 42.6207 15.3182 41.9161 15.3182C41.2116 15.3182 40.5733 15.4962 40.0014 15.8523C39.4332 16.2083 38.9805 16.733 38.6434 17.4261C38.3101 18.1193 38.1434 18.9697 38.1434 19.9773C38.1434 20.9848 38.3101 21.8352 38.6434 22.5284C38.9805 23.2216 39.4332 23.7462 40.0014 24.1023C40.5733 24.4583 41.2116 24.6364 41.9161 24.6364C42.6207 24.6364 43.2571 24.4583 43.8252 24.1023C44.3972 23.7462 44.8499 23.2216 45.1832 22.5284C45.5203 21.8352 45.6889 20.9848 45.6889 19.9773Z" fill="#646464"/>
<path d="M23 14.1592H24.6818L28.6364 23.8183H28.7727L32.7273 14.1592H34.4091V25.7955H33.0909V16.9546H32.9773L29.3409 25.7955H28.0682L24.4318 16.9546H24.3182V25.7955H23V14.1592Z" fill="#646464"/>
<g filter="url(#filter0_d_18_32)">
<path d="M79.5909 15L84.5909 20.5L79.5909 26" stroke="#646464" stroke-width="1.2" stroke-miterlimit="10" stroke-linecap="round" stroke-linejoin="round" shape-rendering="crispEdges"/>
</g>
<defs>
<filter id="filter0_d_18_32" x="74.991" y="10.4" width="14.2" height="20.2" filterUnits="userSpaceOnUse" color-interpolation-filters="sRGB">
<feFlood flood-opacity="0" result="BackgroundImageFix"/>
<feColorMatrix in="SourceAlpha" type="matrix" values="0 0 0 0 0 0 0 0 0 0 0 0 0 0 0 0 0 0 127 0" result="hardAlpha"/>
<feOffset/>
<feGaussianBlur stdDeviation="2"/>
<feComposite in2="hardAlpha" operator="out"/>
<feColorMatrix type="matrix" values="0 0 0 0 0 0 0 0 0 0 0 0 0 0 0 0 0 0 0.15 0"/>
<feBlend mode="normal" in2="BackgroundImageFix" result="effect1_dropShadow_18_32"/>
<feBlend mode="normal" in="SourceGraphic" in2="effect1_dropShadow_18_32" result="shape"/>
</filter>
</defs>
</svg>
