<svg width="40" height="40" viewBox="0 0 40 40" fill="none" xmlns="http://www.w3.org/2000/svg">
<path d="M40 20C40 31.0449 31.0449 40 20 40C8.95508 40 0 31.0449 0 20C0 8.95508 8.95508 0 20 0C31.0449 0 40 8.95508 40 20Z" fill="#818181"/>
<path d="M24.7559 15.2988V18.5508H21.5918V31.207H17.2559V18.5508H15V15.2988H17.2559V14.0977C17.2559 10.7432 19.2773 9 22.4707 9C23.4521 9 24.2871 9.08789 25.0488 9.26367V12.5449C24.4189 12.4863 23.9648 12.4717 23.7305 12.457C22.3389 12.4717 21.5918 12.999 21.5918 14.332V15.2988H24.7559Z" fill="white"/>
</svg>
