<svg width="40" height="40" viewBox="0 0 40 40" fill="none" xmlns="http://www.w3.org/2000/svg">
<path d="M40 20C40 31.0449 31.0449 40 20 40C8.95508 40 0 31.0449 0 20C0 8.95508 8.95508 0 20 0C31.0449 0 40 8.95508 40 20Z" fill="#818181"/>
<path fill-rule="evenodd" clip-rule="evenodd" d="M11.5 7.5C9.29086 7.5 7.5 9.29086 7.5 11.5V28.5C7.5 30.7091 9.29086 32.5 11.5 32.5H28.5C30.7091 32.5 32.5 30.7091 32.5 28.5V11.5C32.5 9.29086 30.7091 7.5 28.5 7.5H11.5ZM14 10C11.7909 10 10 11.7909 10 14V26C10 28.2091 11.7909 30 14 30H26C28.2091 30 30 28.2091 30 26V14C30 11.7909 28.2091 10 26 10H14Z" fill="#D9D9D9"/>
<circle cx="26.5" cy="13.5" r="1.5" fill="#D9D9D9"/>
<path fill-rule="evenodd" clip-rule="evenodd" d="M19.75 26.5C23.2018 26.5 26 23.7018 26 20.25C26 16.7982 23.2018 14 19.75 14C16.2982 14 13.5 16.7982 13.5 20.25C13.5 23.7018 16.2982 26.5 19.75 26.5ZM19.75 24C21.8211 24 23.5 22.3211 23.5 20.25C23.5 18.1789 21.8211 16.5 19.75 16.5C17.6789 16.5 16 18.1789 16 20.25C16 22.3211 17.6789 24 19.75 24Z" fill="#D9D9D9"/>
</svg>
