<svg width="50" height="50" viewBox="0 0 50 50" fill="none" xmlns="http://www.w3.org/2000/svg">
<path fill-rule="evenodd" clip-rule="evenodd" d="M25 50C38.8071 50 50 38.8071 50 25C50 11.1929 38.8071 0 25 0C11.1929 0 0 11.1929 0 25C0 38.8071 11.1929 50 25 50ZM39.0607 23.9393L29.5147 14.3934C28.9289 13.8076 27.9792 13.8076 27.3934 14.3934C26.8076 14.9792 26.8076 15.9289 27.3934 16.5147L34.3787 23.5L13 23.5V26.5L34.3787 26.5L27.3934 33.4853C26.8076 34.0711 26.8076 35.0208 27.3934 35.6066C27.9792 36.1924 28.9289 36.1924 29.5147 35.6066L39.0607 26.0607C39.6464 25.4749 39.6464 24.5251 39.0607 23.9393Z" fill="white"/>
</svg>
