<svg width="40" height="40" viewBox="0 0 40 40" fill="none" xmlns="http://www.w3.org/2000/svg">
<path d="M40 20C40 31.0449 31.0449 40 20 40C8.95508 40 0 31.0449 0 20C0 8.95508 8.95508 0 20 0C31.0449 0 40 8.95508 40 20Z" fill="#818181"/>
<path fill-rule="evenodd" clip-rule="evenodd" d="M11.5 11.5C9.29086 11.5 7.5 13.2909 7.5 15.5V24.5C7.5 26.7091 9.29086 28.5 11.5 28.5H29C31.2091 28.5 33 26.7091 33 24.5V15.5C33 13.2909 31.2091 11.5 29 11.5H11.5ZM18.125 24.4168L24.5 20L18.125 15.5833V24.4168Z" fill="#D9D9D9"/>
</svg>
